<svg width="32" height="32" viewBox="0 0 32 32" fill="none" xmlns="http://www.w3.org/2000/svg">
<g clip-path="url(#clip0_238_133)">
<path d="M8 16C12.4183 16 16 12.4183 16 8C16 3.58172 12.4183 0 8 0C3.58172 0 0 3.58172 0 8C0 12.4183 3.58172 16 8 16Z" fill="#FBBC04"/>
<path d="M20 32C26.6274 32 32 26.6274 32 20C32 13.3726 26.6274 8 20 8C13.3726 8 8 13.3726 8 20C8 26.6274 13.3726 32 20 32Z" fill="url(#paint0_linear_238_133)"/>
<path fill-rule="evenodd" clip-rule="evenodd" d="M8.69299 15.97C9.29244 14.2944 10.256 12.7727 11.5144 11.5144C12.7727 10.256 14.2944 9.29244 15.97 8.69299C15.8066 10.5681 14.9874 12.3256 13.6565 13.6565C12.3256 14.9874 10.5681 15.8066 8.69299 15.97Z" fill="url(#paint1_linear_238_133)"/>
<path fill-rule="evenodd" clip-rule="evenodd" d="M20 32C20 26.477 15.523 22 10 22C4.477 22 0 26.477 0 32C0.015 31.977 20.005 31.985 20 32Z" fill="#F1F3F4"/>
</g>
<defs>
<linearGradient id="paint0_linear_238_133" x1="8" y1="8" x2="2366.65" y2="2366.65" gradientUnits="userSpaceOnUse">
<stop stop-color="#F1F3F4"/>
<stop offset="1" stop-color="#DADCE0"/>
</linearGradient>
<linearGradient id="paint1_linear_238_133" x1="616.017" y1="736.393" x2="-105.097" y2="-207.056" gradientUnits="userSpaceOnUse">
<stop stop-color="#E4E5E5"/>
<stop offset="1" stop-color="#FCD35C"/>
</linearGradient>
<clipPath id="clip0_238_133">
<rect width="32" height="32" fill="white"/>
</clipPath>
</defs>
</svg>
