<svg width="30" height="34" viewBox="0 0 30 34" fill="none" xmlns="http://www.w3.org/2000/svg">
<path d="M27.8696 31.0018C27.4821 30.9848 27.0697 31.0871 26.5942 31.2675C26.1157 31.449 25.5268 31.7284 24.7768 32.1034C24.1318 32.4259 23.6228 32.4443 23.1528 32.3427C22.6412 32.232 22.1849 31.9881 21.5786 31.7186C20.9982 31.4607 20.3261 31.207 19.5161 31.2069C18.6999 31.2069 17.7966 31.463 16.7358 32.1259C15.9931 32.5901 15.4343 32.773 15.0005 32.8163V33.8183C15.6528 33.774 16.3901 33.5213 17.2651 32.9745C18.2039 32.3878 18.9262 32.2069 19.5161 32.2069C20.1121 32.207 20.6279 32.3907 21.1723 32.6327C21.6906 32.8631 22.2976 33.1809 22.9419 33.3202C23.6278 33.4684 24.3695 33.4252 25.2241 32.9979C25.9739 32.6231 26.5223 32.3648 26.9487 32.203C27.3777 32.0403 27.6394 31.9927 27.8256 32.0009C27.9915 32.0083 28.1383 32.0613 28.3374 32.2011C28.5563 32.3548 28.795 32.5801 29.1616 32.9179C29.3647 33.1049 29.6815 33.0926 29.8686 32.8895C30.0556 32.6865 30.0423 32.3696 29.8393 32.1825C29.502 31.8717 29.2005 31.585 28.9126 31.3827C28.6051 31.1668 28.277 31.0199 27.8696 31.0018Z" fill="#D9D9D9"/>
<path d="M2.13114 31.0018C2.51863 30.9848 2.93101 31.0871 3.40653 31.2675C3.88498 31.449 4.47393 31.7284 5.22391 32.1034C5.86894 32.4259 6.37789 32.4443 6.84793 32.3427C7.35957 32.232 7.81579 31.9881 8.42215 31.7186C9.00258 31.4607 9.6746 31.207 10.4847 31.2069C11.3009 31.2069 12.2041 31.463 13.2649 32.1259C14.0077 32.5901 14.5665 32.773 15.0003 32.8163V33.8183C14.3479 33.774 13.6106 33.5213 12.7356 32.9745C11.7968 32.3878 11.0745 32.2069 10.4847 32.2069C9.88866 32.207 9.37285 32.3907 8.8284 32.6327C8.31008 32.8631 7.70318 33.1809 7.05887 33.3202C6.3729 33.4684 5.63123 33.4252 4.77664 32.9979C4.02683 32.6231 3.47841 32.3648 3.05204 32.203C2.62306 32.0403 2.3613 31.9927 2.17508 32.0009C2.0092 32.0083 1.86241 32.0613 1.66336 32.2011C1.44446 32.3548 1.20577 32.5801 0.839145 32.9179C0.63605 33.1049 0.319183 33.0926 0.132114 32.8895C-0.0548233 32.6865 -0.0415301 32.3696 0.161411 32.1825C0.49877 31.8717 0.800186 31.585 1.08817 31.3827C1.39564 31.1668 1.7237 31.0199 2.13114 31.0018Z" fill="#D9D9D9"/>
<path d="M27.8698 27.002C27.4823 26.9849 27.0699 27.0872 26.5944 27.2676C26.1159 27.4491 25.527 27.7285 24.777 28.1035C24.1319 28.426 23.623 28.4444 23.153 28.3428C22.6413 28.2321 22.1851 27.9883 21.5787 27.7188C20.9983 27.4608 20.3263 27.2071 19.5162 27.207C18.7 27.207 17.7968 27.4631 16.736 28.126C15.9932 28.5902 15.4344 28.7731 15.0006 28.8164V29.8184C15.653 29.7741 16.3902 29.5214 17.2653 28.9746C18.2041 28.3879 18.9264 28.207 19.5162 28.207C20.1122 28.2071 20.628 28.3908 21.1725 28.6328C21.6908 28.8632 22.2977 29.181 22.942 29.3203C23.628 29.4685 24.3697 29.4253 25.2242 28.998C25.9741 28.6232 26.5225 28.3649 26.9489 28.2031C27.3778 28.0404 27.6396 27.9928 27.8258 28.001C27.9917 28.0084 28.1385 28.0615 28.3375 28.2012C28.5564 28.3549 28.7951 28.5802 29.1617 28.918C29.3648 29.105 29.6817 29.0927 29.8688 28.8896C30.0557 28.6866 30.0424 28.3697 29.8395 28.1826C29.5021 27.8718 29.2007 27.5851 28.9127 27.3828C28.6052 27.1669 28.2772 27.02 27.8698 27.002Z" fill="#D9D9D9"/>
<path d="M2.13098 27.002C2.51848 26.9849 2.93085 27.0872 3.40637 27.2676C3.88483 27.4491 4.47377 27.7285 5.22375 28.1035C5.86879 28.426 6.37773 28.4444 6.84778 28.3428C7.35941 28.2321 7.81563 27.9883 8.422 27.7188C9.00242 27.4608 9.67445 27.2071 10.4845 27.207C11.3007 27.207 12.204 27.4631 13.2648 28.126C14.0075 28.5902 14.5663 28.7731 15.0001 28.8164V29.8184C14.3478 29.7741 13.6105 29.5214 12.7355 28.9746C11.7966 28.3879 11.0743 28.207 10.4845 28.207C9.8885 28.2071 9.37269 28.3908 8.82825 28.6328C8.30993 28.8632 7.70302 29.181 7.05872 29.3203C6.37275 29.4685 5.63108 29.4253 4.77649 28.998C4.02667 28.6232 3.47826 28.3649 3.05188 28.2031C2.62291 28.0404 2.36115 27.9928 2.17493 28.001C2.00904 28.0084 1.86225 28.0615 1.66321 28.2012C1.4443 28.3549 1.20562 28.5802 0.838989 28.918C0.635894 29.105 0.319027 29.0927 0.131958 28.8896C-0.054979 28.6866 -0.0416859 28.3697 0.161255 28.1826C0.498614 27.8718 0.80003 27.5851 1.08801 27.3828C1.39549 27.1669 1.72354 27.02 2.13098 27.002Z" fill="#D9D9D9"/>
<path d="M15.0001 24C21.6275 24 27.0001 18.6274 27.0001 12C27.0001 5.37258 21.6275 0 15.0001 0C8.3727 0 3.00012 5.37258 3.00012 12C3.00012 18.6274 8.3727 24 15.0001 24Z" fill="#FCD35C"/>
<path d="M15.226 21.2258C20.1965 21.2258 24.226 17.1964 24.226 12.2258C24.226 7.25527 20.1965 3.22583 15.226 3.22583C10.2554 3.22583 6.22595 7.25527 6.22595 12.2258C6.22595 17.1964 10.2554 21.2258 15.226 21.2258Z" fill="#FCCB3D"/>
</svg>
