<svg width="33" height="33" viewBox="0 0 33 33" fill="none" xmlns="http://www.w3.org/2000/svg">
<g clip-path="url(#clip0_284_149)">
<rect x="6" y="5" width="21" height="23" fill="#009788"/>
<path d="M26.125 0H6.875C5.05231 0.0021833 3.30489 0.727213 2.01605 2.01605C0.727213 3.30489 0.0021833 5.05231 0 6.875L0 26.125C0.0021833 27.9477 0.727213 29.6951 2.01605 30.9839C3.30489 32.2728 5.05231 32.9978 6.875 33H26.125C27.9477 32.9978 29.6951 32.2728 30.9839 30.9839C32.2728 29.6951 32.9978 27.9477 33 26.125V6.875C32.9978 5.05231 32.2728 3.30489 30.9839 2.01605C29.6951 0.727213 27.9477 0.0021833 26.125 0ZM24.3471 19.9856L19.4164 24.9164C19.0333 25.2995 18.5786 25.6034 18.078 25.8107C17.5775 26.0181 17.0411 26.1248 16.4993 26.1248C15.9576 26.1248 15.4211 26.0181 14.9206 25.8107C14.4201 25.6034 13.9653 25.2995 13.5823 24.9164L8.65288 19.9856L8.61988 19.9513C8.48881 19.8226 8.38485 19.669 8.31413 19.4995C8.2434 19.33 8.20734 19.1481 8.20808 18.9645C8.20882 18.7808 8.24634 18.5992 8.31842 18.4303C8.39051 18.2614 8.4957 18.1086 8.62779 17.981C8.75988 17.8534 8.91619 17.7536 9.0875 17.6874C9.25881 17.6212 9.44164 17.59 9.6252 17.5956C9.80876 17.6013 9.98933 17.6436 10.1563 17.7202C10.3232 17.7967 10.4731 17.9059 10.5971 18.0414L15.125 22.5692L15.1154 8.25C15.1154 7.88533 15.2602 7.53559 15.5181 7.27773C15.776 7.01987 16.1257 6.875 16.4904 6.875C16.855 6.875 17.2048 7.01987 17.4626 7.27773C17.7205 7.53559 17.8654 7.88533 17.8654 8.25L17.875 22.5679L22.4029 18.0414C22.5297 17.91 22.6814 17.8053 22.8492 17.7332C23.0169 17.6612 23.1974 17.6232 23.3799 17.6217C23.5625 17.6201 23.7436 17.6549 23.9126 17.724C24.0815 17.7931 24.2351 17.8952 24.3642 18.0243C24.4933 18.1534 24.5954 18.307 24.6645 18.4759C24.7336 18.6449 24.7684 18.826 24.7668 19.0086C24.7653 19.1911 24.7273 19.3716 24.6553 19.5393C24.5832 19.7071 24.4785 19.8588 24.3471 19.9856Z" fill="#AEDA80"/>
</g>
<defs>
<clipPath id="clip0_284_149">
<rect width="33" height="33" fill="white"/>
</clipPath>
</defs>
</svg>
