<svg width="32" height="29" viewBox="0 0 32 29" fill="none" xmlns="http://www.w3.org/2000/svg">
<path d="M16.2823 0C24.1507 6.15136e-05 30.5294 6.34416 30.5294 14.1699C30.5294 16.7511 29.8346 19.1706 28.6222 21.2549H3.9425C2.7301 19.1706 2.03529 16.7511 2.03528 14.1699C2.03528 6.34412 8.41397 0 16.2823 0Z" fill="#F39D3C"/>
<path d="M16.2826 3.03638C22.4646 3.03653 27.4757 7.79428 27.476 13.6633C27.476 15.2934 27.0886 16.8375 26.3978 18.218H21.8832L16.2826 25.303L10.681 18.218H6.16638C5.47563 16.8376 5.08826 15.2933 5.08826 13.6633C5.08851 7.79418 10.1005 3.03638 16.2826 3.03638Z" fill="#EC7A08"/>
<path d="M16.0001 28.9805C16.0755 28.9804 16.1505 28.9742 16.2247 28.9629C16.3562 28.9431 16.4863 28.9066 16.6115 28.8506C16.642 28.837 16.6726 28.8233 16.7023 28.8076C16.7096 28.8037 16.7165 28.7989 16.7238 28.7949C16.8042 28.7507 16.8812 28.699 16.9532 28.6396C16.9658 28.6294 16.9773 28.618 16.9894 28.6074C17.0103 28.5891 17.0319 28.5714 17.0519 28.5518L17.0704 28.5332C17.0898 28.5136 17.107 28.4922 17.1251 28.4717C17.1357 28.4596 17.1471 28.4481 17.1573 28.4355C17.1941 28.391 17.2279 28.3448 17.2589 28.2969L22.0001 21.2363H30.4728C31.3012 21.2363 31.9728 20.5648 31.9728 19.7363C31.9727 18.908 31.3011 18.2363 30.4728 18.2363H20.4015L19.9562 18.9004L15.9991 24.791L12.0431 18.9004L11.5978 18.2363H1.52649C0.69833 18.2366 0.0265886 18.9081 0.0264893 19.7363C0.0264893 20.5646 0.698269 21.2361 1.52649 21.2363H9.99915L14.7404 28.2979C14.7711 28.3453 14.8056 28.3905 14.8419 28.4346C14.8524 28.4473 14.8634 28.4594 14.8741 28.4717C14.8924 28.4924 14.9103 28.5134 14.9298 28.5332L14.9484 28.5518C14.9662 28.5693 14.9855 28.5851 15.004 28.6016C15.0181 28.6141 15.0314 28.6276 15.046 28.6396C15.0732 28.6621 15.1015 28.6828 15.13 28.7031C15.141 28.711 15.1519 28.719 15.1632 28.7266C15.1652 28.7279 15.1671 28.7301 15.1691 28.7314C15.201 28.7527 15.2344 28.7714 15.2677 28.79C15.2776 28.7956 15.287 28.8023 15.297 28.8076C15.3267 28.8233 15.3573 28.837 15.3878 28.8506C15.5129 28.9067 15.6431 28.943 15.7745 28.9629C15.8491 28.9743 15.9244 28.9804 16.0001 28.9805Z" fill="#F1F3F4"/>
</svg>
