<svg width="33" height="33" viewBox="0 0 33 33" fill="none" xmlns="http://www.w3.org/2000/svg">
<g clip-path="url(#clip0_284_150)">
<rect width="21" height="23" transform="matrix(1 0 0 -1 6 28)" fill="#EC7A08"/>
<path d="M26.125 33H6.875C5.05231 32.9978 3.30489 32.2728 2.01605 30.9839C0.727213 29.6951 0.0021833 27.9477 0 26.125L0 6.875C0.0021833 5.05231 0.727213 3.30489 2.01605 2.01605C3.30489 0.727211 5.05231 0.0021833 6.875 0H26.125C27.9477 0.0021833 29.6951 0.727211 30.9839 2.01605C32.2728 3.30489 32.9978 5.05231 33 6.875V26.125C32.9978 27.9477 32.2728 29.6951 30.9839 30.9839C29.6951 32.2728 27.9477 32.9978 26.125 33ZM24.3471 13.0144L19.4164 8.08362C19.0333 7.70051 18.5786 7.3966 18.078 7.18926C17.5775 6.98191 17.0411 6.87519 16.4993 6.87519C15.9576 6.87519 15.4211 6.98191 14.9206 7.18926C14.4201 7.3966 13.9653 7.70051 13.5823 8.08362L8.65288 13.0144L8.61988 13.0487C8.48881 13.1774 8.38485 13.331 8.31413 13.5005C8.2434 13.67 8.20734 13.8519 8.20808 14.0355C8.20882 14.2192 8.24634 14.4008 8.31842 14.5697C8.39051 14.7386 8.4957 14.8914 8.62779 15.019C8.75988 15.1466 8.91619 15.2464 9.0875 15.3126C9.25881 15.3788 9.44164 15.41 9.6252 15.4044C9.80876 15.3987 9.98933 15.3564 10.1563 15.2798C10.3232 15.2033 10.4731 15.0941 10.5971 14.9586L15.125 10.4308L15.1154 24.75C15.1154 25.1147 15.2602 25.4644 15.5181 25.7223C15.776 25.9801 16.1257 26.125 16.4904 26.125C16.855 26.125 17.2048 25.9801 17.4626 25.7223C17.7205 25.4644 17.8654 25.1147 17.8654 24.75L17.875 10.4321L22.4029 14.9586C22.5297 15.09 22.6814 15.1947 22.8492 15.2668C23.0169 15.3388 23.1974 15.3768 23.3799 15.3783C23.5625 15.3799 23.7436 15.3451 23.9126 15.276C24.0815 15.2069 24.2351 15.1048 24.3642 14.9757C24.4933 14.8466 24.5954 14.693 24.6645 14.5241C24.7336 14.3551 24.7684 14.174 24.7668 13.9914C24.7653 13.8089 24.7273 13.6284 24.6553 13.4607C24.5832 13.2929 24.4785 13.1412 24.3471 13.0144Z" fill="#FFBC09"/>
</g>
<defs>
<clipPath id="clip0_284_150">
<rect width="33" height="33" fill="white" transform="matrix(1 0 0 -1 0 33)"/>
</clipPath>
</defs>
</svg>
