<svg width="32" height="32" viewBox="0 0 32 32" fill="none" xmlns="http://www.w3.org/2000/svg">
<path d="M16.2227 6C22.7272 6.00018 28 11.7794 28 18.9082C28 21.8628 27.0912 24.5833 25.5674 26.7588L16.4443 18.6641L7.04883 27C5.42104 24.7862 4.44439 21.9727 4.44434 18.9082C4.44434 11.7793 9.71797 6 16.2227 6Z" fill="#FCCB3D"/>
<path d="M16.2227 8.92285C21.009 8.92304 24.8886 13.1753 24.8887 18.4209C24.8887 21.6077 23.455 24.4255 21.2578 26.1484L16.4443 21.0996L11.4443 26.3438C9.10184 24.6434 7.55566 21.7308 7.55566 18.4209C7.5557 13.1752 11.4362 8.92285 16.2227 8.92285Z" fill="#FCD35C"/>
<path fill-rule="evenodd" clip-rule="evenodd" d="M16.0928 17.0687C16.109 17.0697 16.1254 17.0701 16.1416 17.0717C16.1743 17.0748 16.2068 17.0801 16.2393 17.0853C16.3748 17.1071 16.5083 17.148 16.6367 17.2084C16.7466 17.2598 16.8514 17.3237 16.9473 17.4017C16.9643 17.4156 16.9798 17.4312 16.9961 17.4457C17.0553 17.4984 17.1118 17.5554 17.1631 17.6185C17.1716 17.629 17.1793 17.6401 17.1875 17.6508C17.2079 17.6773 17.2292 17.7036 17.248 17.7318L21.9141 24.7172H30.2227C31.0508 24.7174 31.7225 25.3891 31.7227 26.2172C31.7226 27.0454 31.0508 27.7169 30.2227 27.7172H20.3096L19.8643 27.0502L16 21.264L12.1357 27.0502L11.6904 27.7172H1.77734C0.949173 27.7169 0.277436 27.0454 0.277344 26.2172C0.27755 25.3891 0.949244 24.7174 1.77734 24.7172H10.0859L14.752 17.7318C14.7707 17.7037 14.7912 17.6772 14.8115 17.6508C14.8197 17.6401 14.8274 17.629 14.8359 17.6185C14.8872 17.5554 14.9438 17.4984 15.0029 17.4457C15.0192 17.4312 15.0347 17.4156 15.0518 17.4017C15.1476 17.3236 15.2525 17.2598 15.3623 17.2084C15.4575 17.1635 15.5556 17.1303 15.6553 17.1068C15.6749 17.1022 15.6941 17.096 15.7139 17.0922C15.7291 17.0892 15.7445 17.0878 15.7598 17.0853C15.7922 17.0801 15.8247 17.0748 15.8574 17.0717C15.8737 17.0701 15.89 17.0697 15.9062 17.0687C15.9352 17.0669 15.9641 17.065 15.9932 17.0648H16.0068C16.0355 17.065 16.0642 17.0669 16.0928 17.0687Z" fill="#F1F3F4"/>
</svg>
